<?xml version="1.0" standalone="no"?>
<!DOCTYPE svg PUBLIC "-//W3C//DTD SVG 20010904//EN"
 "http://www.w3.org/TR/2001/REC-SVG-20010904/DTD/svg10.dtd">
<svg version="1.0" xmlns="http://www.w3.org/2000/svg"
 width="446.000000pt" height="458.000000pt" viewBox="0 0 446.000000 458.000000"
 preserveAspectRatio="xMidYMid meet">

<g transform="translate(0.000000,458.000000) scale(0.100000,-0.100000)"
fill="#000000" stroke="none">
<path d="M4133 4388 c-21 -24 -223 -282 -436 -558 -258 -334 -834 -1107 -1099
-1476 l-58 -81 61 -154 c252 -638 332 -838 343 -864 55 -124 117 -286 112
-293 -3 -5 -108 -12 -233 -15 -333 -10 -554 -19 -549 -24 7 -8 653 -33 831
-33 l63 0 -38 108 c-59 166 -321 877 -394 1070 -36 94 -66 178 -66 185 0 7 13
31 28 53 16 21 110 152 209 289 399 555 818 1158 1122 1614 133 200 133 201
128 201 -2 0 -13 -10 -24 -22z"/>
<path d="M3638 4098 c-18 -23 -42 -54 -53 -69 -11 -15 -72 -92 -136 -171 -231
-287 -894 -1140 -1132 -1459 l-57 -76 99 -269 c55 -148 134 -363 176 -479 43
-115 88 -239 102 -275 14 -36 26 -72 26 -80 2 -13 -36 -15 -276 -18 l-278 -2
-18 42 c-10 24 -67 177 -127 340 -84 230 -112 294 -121 285 -32 -32 -890
-1277 -880 -1277 5 0 270 345 726 945 74 97 138 172 142 168 4 -4 42 -109 84
-233 42 -124 87 -254 99 -290 l22 -65 164 -7 c91 -5 267 -7 391 -5 l226 2
-128 350 c-70 193 -137 373 -148 400 -17 45 -49 128 -142 377 l-28 77 101 138
c201 273 287 391 403 553 65 91 143 200 174 242 31 43 74 104 97 135 22 32 90
128 150 213 61 85 137 193 169 240 59 86 82 119 169 243 53 75 55 89 4 25z"/>
<path d="M879 3323 c15 -38 63 -158 106 -268 43 -110 125 -316 182 -458 56
-142 103 -262 103 -268 0 -6 -69 -115 -153 -242 -134 -202 -438 -674 -462
-717 -16 -30 13 6 100 120 180 236 594 792 608 816 3 6 -5 42 -19 80 -14 38
-43 116 -64 174 -21 58 -47 128 -58 155 -11 28 -52 138 -92 245 -40 107 -81
213 -90 235 -10 23 -22 53 -25 67 l-7 27 279 3 c178 2 282 0 289 -7 6 -5 39
-77 74 -160 35 -82 74 -174 86 -203 13 -29 36 -80 50 -115 14 -34 39 -90 55
-125 16 -35 29 -68 29 -73 0 -27 23 0 67 79 27 48 109 193 182 322 73 129 144
255 158 280 24 44 24 45 1 17 -13 -15 -102 -146 -198 -291 -96 -146 -179 -265
-183 -265 -10 -1 -34 55 -107 249 -33 85 -79 207 -103 270 l-44 115 -396 3
-396 2 28 -67z"/>
<path d="M1714 1307 c-159 -165 -339 -401 -487 -637 -85 -135 -172 -298 -164
-306 13 -14 281 298 413 481 134 185 346 537 331 551 -2 2 -44 -37 -93 -89z"/>
</g>
</svg>
